<svg width="720" height="588" viewBox="0 0 720 588" fill="none" xmlns="http://www.w3.org/2000/svg">
<g clip-path="url(#clip0_92_390)">
<path d="M364.746 133.785C358.326 123.213 350.719 111.926 338.805 108.474C325.008 104.477 310.836 112.418 298.814 120.254C262.862 143.69 228.239 169.087 195.105 196.33L195.141 196.741C220.938 194.97 246.734 193.199 272.53 191.427C291.168 190.148 310.446 188.692 326.917 179.913C333.167 176.582 339.26 172.133 346.342 171.823C355.141 171.438 362.814 177.556 368.843 183.948C404.509 221.761 414.83 279.585 454.843 312.807C429.612 250.855 399.485 190.993 364.746 133.785Z" fill="#C0C0C0"/>
<path d="M583.978 454.504C580.034 449.546 578.423 448.385 574.532 443.38C542.855 402.59 513.08 360.421 485.209 316.875C466.278 287.3 448.286 257.157 431.232 226.447C423.113 211.846 415.217 197.131 407.543 182.302C401.588 170.804 395.766 159.236 390.077 147.6C388.45 144.277 386.87 140.938 385.297 137.592C381.59 129.723 377.953 121.815 374.047 114.053C369.596 105.205 364.178 95.9303 356.006 89.9863C352.286 87.1702 347.839 85.4663 343.183 85.0737C336.529 84.6459 330.39 87.381 324.62 90.3683C282.399 112.288 242.871 139.769 207.119 171.04C171.275 202.382 139.237 237.79 111.657 276.543C110.813 277.742 108.818 276.596 109.669 275.389C113.023 270.668 116.443 265.997 119.929 261.377C163.281 203.974 216.436 154.61 276.965 115.542C287.149 108.972 297.524 102.71 308.09 96.7554C313.416 93.7528 318.765 90.7885 324.205 88.0075C329.539 85.28 335.202 82.8275 341.295 82.7358C362.03 82.4149 372.765 105.794 380.14 121.525C382.457 126.476 384.803 131.411 387.177 136.331C396.147 155.011 405.463 173.521 415.124 191.86C421.087 203.182 427.18 214.439 433.404 225.629C452.772 260.476 473.358 294.617 495.162 328.053C524.047 372.342 552.7 411.467 585.605 452.884C586.511 454.031 584.892 455.666 583.978 454.504Z" fill="#C0C0C0"/>
<path d="M205.07 159.496C203.865 158.159 202.668 156.822 201.455 155.485C191.894 144.957 181.634 134.551 168.504 128.515C162.244 125.547 155.409 123.969 148.476 123.893C141.308 123.916 134.302 125.788 127.68 128.409C124.549 129.654 121.487 131.067 118.471 132.572C115.026 134.299 111.641 136.14 108.273 137.997C101.949 141.481 95.7081 145.117 89.5489 148.907C77.2936 156.448 65.4222 164.564 53.9347 173.256C47.9796 177.764 42.1475 182.419 36.4382 187.222C31.128 191.684 25.9252 196.265 20.8298 200.967C19.7402 201.968 18.1133 200.348 19.2029 199.347C20.5458 198.102 21.9041 196.864 23.2624 195.642C27.0993 192.188 30.9976 188.801 34.9574 185.48C42.1782 179.414 49.5859 173.582 57.1807 167.984C68.9907 159.275 81.2074 151.156 93.8305 143.628C100.139 139.869 106.533 136.268 113.015 132.824C114.972 131.785 116.952 130.769 118.955 129.807C123.499 127.524 128.221 125.611 133.074 124.084C139.949 121.87 147.223 121.158 154.4 121.998C161.329 123.002 168.005 125.301 174.076 128.775C186.967 135.949 196.966 147.043 206.697 157.869C207.679 158.969 206.06 160.596 205.07 159.496Z" fill="#C0C0C0"/>
<path d="M469.22 268.595L500.112 257.346L515.45 251.76C520.445 249.941 525.429 247.871 530.593 246.568C535.08 245.292 539.845 245.352 544.299 246.742C548.27 248.205 551.906 250.449 554.989 253.34C558.139 256.228 561.07 259.344 563.757 262.663C567.097 266.658 570.387 270.696 573.691 274.72C587.331 291.327 600.881 308.007 614.343 324.759C627.804 341.51 641.175 358.333 654.455 375.227C667.769 392.162 680.991 409.167 694.121 426.244C695.729 428.336 697.337 430.429 698.942 432.523C699.829 433.68 701.83 432.54 700.93 431.366C687.703 414.118 674.384 396.94 660.972 379.833C647.528 362.685 633.99 345.609 620.36 328.607C606.73 311.604 593.008 294.676 579.193 277.821C575.752 273.622 572.305 269.427 568.852 265.238C565.939 261.703 563.059 258.131 559.865 254.841C554 248.803 546.674 243.467 537.904 243.322C532.748 243.237 527.758 244.866 522.967 246.592C517.803 248.452 512.651 250.347 507.493 252.225L476.385 263.553L468.608 266.385C467.227 266.888 467.824 269.103 469.22 268.595Z" fill="#C0C0C0"/>
<path d="M164.439 141.763C148.74 133.73 128.636 135.303 114.21 145.339C141.726 150.066 168.942 156.39 195.717 164.279C184.598 157.792 175.901 147.628 164.439 141.763Z" fill="#C0C0C0"/>
<path d="M114.056 145.312L111.033 147.757C112.055 146.901 113.118 146.099 114.21 145.339C114.159 145.33 114.107 145.32 114.056 145.312Z" fill="#C0C0C0"/>
<path d="M553.826 268.708C550.785 265.022 547.497 261.163 542.948 259.667L538.702 259.833C571.028 316.704 614.687 366.398 666.999 405.864C629.275 360.145 591.55 314.426 553.826 268.708Z" fill="#C0C0C0"/>
<path d="M289.755 238.305C291.721 245.414 296.148 251.601 302.254 255.773C304.615 257.373 307.408 258.908 308.215 261.635C308.64 263.374 308.378 265.209 307.484 266.761C306.591 268.293 305.505 269.705 304.252 270.962L304.137 271.389C298.279 267.933 292.706 263.56 289.47 257.595C286.234 251.63 285.782 243.811 289.755 238.305Z" fill="#C0C0C0"/>
<path d="M484.795 407.488C486.761 414.596 491.188 420.783 497.294 424.955C499.655 426.555 502.448 428.09 503.255 430.817C503.68 432.556 503.418 434.391 502.524 435.943C501.631 437.475 500.545 438.887 499.292 440.144L499.177 440.571C493.319 437.115 487.746 432.742 484.51 426.777C481.274 420.812 480.822 412.993 484.795 407.488Z" fill="#C0C0C0"/>
<path d="M95.5525 395.82C97.5176 402.928 101.945 409.116 108.051 413.287C110.412 414.887 113.205 416.422 114.012 419.15C114.437 420.888 114.175 422.723 113.281 424.275C112.388 425.807 111.302 427.219 110.049 428.477L109.934 428.903C104.076 425.447 98.5029 421.075 95.2669 415.109C92.0309 409.144 91.5791 401.326 95.5525 395.82Z" fill="#C0C0C0"/>
<path d="M543.474 85.0077C567.052 85.0077 586.165 65.9781 586.165 42.5039C586.165 19.0296 567.052 0 543.474 0C519.896 0 500.783 19.0296 500.783 42.5039C500.783 65.9781 519.896 85.0077 543.474 85.0077Z" fill="#6200EE"/>
<path d="M620.515 9.8929C599.825 7.10853 576.204 18.2426 570.842 38.3318C569.49 34.7599 567.033 31.7082 563.826 29.6177C560.618 27.5271 556.826 26.5058 552.998 26.7014C549.169 26.897 545.502 28.2994 542.526 30.7058C539.55 33.1123 537.42 36.3983 536.443 40.0892L538.812 41.7782C583.15 51.3243 629.047 51.1177 673.296 41.1728C658.904 26.114 641.205 12.6772 620.515 9.8929Z" fill="#C0C0C0"/>
<path d="M531.785 66.5647C511.095 63.7803 487.474 74.9144 482.111 95.0036C480.76 91.4317 478.303 88.3801 475.095 86.2895C471.888 84.1989 468.096 83.1776 464.267 83.3732C460.439 83.5688 456.771 84.9712 453.796 87.3777C450.82 89.7841 448.69 93.0702 447.713 96.761L450.081 98.45C494.419 107.996 540.316 107.79 584.566 97.8447C570.174 82.7859 552.475 69.349 531.785 66.5647Z" fill="#C0C0C0"/>
<path d="M712.366 77.2806C712.28 77.2807 712.195 77.2675 712.113 77.2415C490.783 7.55334 295.712 16.6663 171.041 36.5827C154.074 39.2921 137.062 42.4214 120.478 45.8845C116.244 46.7675 111.851 47.7141 107.422 48.6996C102.133 49.8724 96.9135 51.0802 91.909 52.288C89.7476 52.7975 87.6285 53.3111 85.5515 53.8287C82.4055 54.6019 79.2133 55.4076 75.7915 56.2931C71.9678 57.2746 68.0828 58.3042 64.2419 59.3533C64.2279 59.3582 64.2135 59.3623 64.199 59.3655L64.1994 59.3663C59.8611 60.5456 55.5458 61.7591 51.3726 62.971C49.114 63.6204 46.933 64.261 44.8439 64.8934C44.6106 64.9577 44.4038 65.0195 44.1941 65.083L43.7453 65.2189C43.4853 65.2978 43.2287 65.3752 42.972 65.4484L42.9556 65.4533L42.956 65.4541L42.2767 65.6642C41.4666 65.9083 40.6761 66.1468 39.8987 66.3844C19.3526 72.6903 8.05773 77.1764 7.94615 77.2204C7.84411 77.2611 7.73502 77.2814 7.6251 77.2801C7.51518 77.2789 7.40658 77.2561 7.30551 77.2131C7.20444 77.17 7.11286 77.1076 7.03603 77.0293C6.95919 76.951 6.8986 76.8585 6.85769 76.7569C6.81679 76.6553 6.7964 76.5467 6.79766 76.4372C6.79892 76.3278 6.82182 76.2197 6.86505 76.119C6.90828 76.0184 6.97099 75.9272 7.04961 75.8507C7.12822 75.7743 7.2212 75.7139 7.32324 75.6732C7.43564 75.6292 18.7857 71.1204 39.4066 64.7909C40.1869 64.5524 40.9794 64.3139 41.792 64.069L42.423 63.8736C42.4447 63.8655 42.4664 63.859 42.4884 63.8525C42.7439 63.78 42.9989 63.7027 43.2581 63.6246L43.7077 63.4887C43.9317 63.4211 44.1524 63.3544 44.3784 63.2925C46.4531 62.6642 48.6415 62.0221 50.9058 61.3701C55.0806 60.1575 59.4001 58.944 63.7416 57.763C63.7551 57.7582 63.769 57.7549 63.7825 57.7508C67.6369 56.6985 71.5361 55.664 75.3721 54.6792C78.7993 53.7929 81.9976 52.9856 85.1489 52.2108C87.2347 51.694 89.3579 51.1793 91.5186 50.6668C96.5288 49.4574 101.759 48.248 107.057 47.0728C111.493 46.0863 115.893 45.1374 120.134 44.2535C136.745 40.7848 153.783 37.6505 170.775 34.9371C295.625 14.9922 490.976 5.86453 712.618 75.6528C712.808 75.7127 712.971 75.8385 713.076 76.0075C713.182 76.1765 713.223 76.3775 713.193 76.5742C713.162 76.7708 713.062 76.9502 712.911 77.0797C712.759 77.2093 712.566 77.2805 712.366 77.2806Z" fill="#C0C0C0"/>
<path d="M220.143 349.899C219.853 349.055 219.365 348.292 218.72 347.673C218.482 347.453 218.224 347.255 217.95 347.082C215.765 345.631 212.5 345.306 210.424 347.082C210.215 347.262 210.022 347.46 209.847 347.673C209.227 348.432 208.591 349.173 207.938 349.899C206.867 351.115 205.77 352.29 204.623 353.432C204.297 353.749 203.971 354.074 203.636 354.391C203.443 354.582 203.251 354.766 203.058 354.949C202.322 355.649 201.568 356.324 200.806 356.991C200.405 357.349 200.003 357.699 199.593 358.041C198.982 358.549 198.37 359.058 197.751 359.549C197.692 359.591 197.634 359.633 197.575 359.683C197.559 359.691 197.55 359.708 197.533 359.716C197.525 359.716 197.517 359.716 197.508 359.733C197.486 359.742 197.466 359.756 197.45 359.774C197.266 359.899 197.14 359.983 197.048 360.058C197.081 360.041 197.115 360.016 197.148 359.999C196.998 360.116 196.839 360.233 196.688 360.35C195.223 361.425 193.725 362.458 192.193 363.425C188.403 365.84 184.422 367.944 180.29 369.717C180.013 369.825 179.729 369.942 179.444 370.05C168.624 374.464 156.888 376.186 145.249 375.068C144.061 374.976 142.872 374.851 141.683 374.692C140.311 374.492 138.946 374.251 137.59 373.976C132.427 372.95 127.376 371.432 122.506 369.442C116.414 366.664 110.619 363.28 105.212 359.341C104.375 358.749 103.529 358.158 102.684 357.583C103.646 355.232 104.592 352.882 105.513 350.515C105.973 349.373 106.417 348.232 106.852 347.082C110.276 338.222 113.49 329.28 116.571 320.304C119.685 311.212 122.623 302.066 125.385 292.868C125.67 291.935 125.946 291.002 126.214 290.068C127.662 285.209 129.052 280.339 130.383 275.458C130.508 274.983 130.642 274.517 130.759 274.042C131.144 272.642 131.521 271.241 131.89 269.841C132.727 266.683 130.835 262.907 127.503 262.149C125.899 261.739 124.198 261.966 122.758 262.78C121.319 263.595 120.253 264.934 119.785 266.516C119.425 267.866 119.065 269.208 118.697 270.558C116.931 277.084 115.073 283.587 113.122 290.068C112.838 291.002 112.553 291.935 112.268 292.868C107.966 306.986 103.242 320.963 98.0965 334.797C97.4771 336.472 96.8493 338.142 96.2131 339.806C95.9034 340.623 95.5936 341.439 95.2756 342.256C94.6645 343.865 94.0367 345.473 93.4089 347.082C93.0489 348.023 92.6806 348.965 92.3123 349.899C92.0695 350.49 91.8352 351.082 91.6008 351.665C89.2141 350.812 86.7414 350.22 84.2261 349.899L83.8243 349.849C81.8742 349.615 79.9021 349.632 77.9563 349.899C75.0442 350.237 72.2422 351.208 69.7485 352.743C67.2548 354.278 65.1303 356.34 63.5251 358.783C59.5322 365.042 59.5824 373.992 65.1825 379.31C70.95 384.785 79.6807 384.743 86.4695 381.318C90.0671 379.38 93.1005 376.55 95.2756 373.101C96.1088 371.85 96.8745 370.557 97.5692 369.225C97.745 369.342 97.9207 369.459 98.0965 369.584C98.7662 370.05 99.4359 370.525 100.097 370.992C103.95 373.771 108.011 376.254 112.243 378.418C121.344 382.922 131.14 385.872 141.223 387.144C141.449 387.169 141.667 387.202 141.893 387.227C143.006 387.369 144.128 387.477 145.249 387.569C161.34 388.776 177.45 385.498 191.774 378.101C192.988 377.476 194.191 376.82 195.382 376.134C197.232 375.067 199.04 373.934 200.806 372.734C201.769 372.084 202.707 371.425 203.636 370.734C207.696 367.756 211.481 364.423 214.945 360.775C216.259 359.399 217.517 357.98 218.72 356.516C219.857 355.318 220.513 353.746 220.562 352.099C220.555 351.346 220.413 350.601 220.143 349.899ZM81.5307 369.75C81.7065 369.625 81.8823 369.492 82.0497 369.359C81.9995 369.484 81.7567 369.625 81.5307 369.75ZM84.2177 367.058C84.0252 367.275 83.8494 367.492 83.6569 367.708C83.0711 368.361 82.4419 368.974 81.7734 369.542C81.6813 369.625 81.5809 369.709 81.4805 369.784C81.4794 369.784 81.4783 369.784 81.4772 369.784C81.4762 369.785 81.4753 369.785 81.4745 369.786C81.4737 369.787 81.4731 369.788 81.4727 369.789C81.4723 369.79 81.4721 369.791 81.4721 369.792C81.3512 369.846 81.2337 369.907 81.1205 369.975C80.7605 370.192 80.3922 370.392 80.0156 370.575C79.278 370.846 78.5193 371.055 77.7471 371.2C77.1537 371.244 76.5582 371.249 75.9641 371.217H75.9473C75.5374 371.127 75.1323 371.015 74.7336 370.884C74.5327 370.784 74.3402 370.667 74.1476 370.55C74.0723 370.484 74.0053 370.417 73.9635 370.375C73.8817 370.301 73.8061 370.22 73.7375 370.134C73.7375 370.133 73.7373 370.132 73.7369 370.13C73.7365 370.129 73.7359 370.129 73.7351 370.128C73.7343 370.127 73.7334 370.126 73.7324 370.126C73.7313 370.126 73.7302 370.125 73.7291 370.125C73.637 369.959 73.5366 369.792 73.4445 369.625C73.4398 369.621 73.4368 369.615 73.4362 369.609C73.3692 369.4 73.3106 369.184 73.2604 368.967C73.2422 368.586 73.245 368.205 73.2687 367.825C73.3811 367.293 73.5321 366.769 73.7208 366.258C73.8902 365.896 74.0832 365.545 74.2983 365.208C74.3151 365.175 74.3988 365.042 74.4909 364.892C74.4993 364.883 74.4992 364.883 74.4992 364.875C74.6248 364.733 74.7504 364.583 74.8843 364.45C75.1103 364.2 75.3531 363.983 75.5958 363.758C76.0679 363.451 76.557 363.169 77.0607 362.916C77.8598 362.634 78.6799 362.414 79.5134 362.258C80.7425 362.161 81.9778 362.172 83.2049 362.291C84.3672 362.492 85.514 362.773 86.6369 363.133C85.9563 364.448 85.1814 365.713 84.3182 366.917C84.2847 366.967 84.2512 367.017 84.2177 367.058ZM74.9094 364.317C74.8356 364.434 74.7486 364.543 74.6499 364.642C74.7163 364.519 74.8042 364.409 74.9094 364.317Z" fill="#151515"/>
<path d="M194.98 264.782C194.905 267.399 194.83 270.016 194.754 272.633C194.595 278.442 194.431 284.254 194.26 290.068C194.085 296.61 193.9 303.15 193.708 309.686C193.616 313.062 193.521 316.437 193.423 319.812C193.164 328.905 192.907 337.995 192.653 347.082C192.628 348.023 192.595 348.957 192.569 349.898C192.444 354.407 192.318 358.916 192.193 363.425C192.05 368.317 191.911 373.209 191.774 378.101C191.674 381.768 191.571 385.438 191.465 389.11C190.711 415.721 189.958 442.332 189.204 468.943C189.173 470.591 188.501 472.162 187.33 473.327C186.16 474.493 184.581 475.162 182.926 475.193C181.265 475.18 179.676 474.517 178.502 473.348C177.327 472.178 176.662 470.596 176.648 468.943C177.067 453.975 177.491 439.007 177.921 424.039C178.297 410.504 178.679 396.969 179.067 383.435C179.193 378.976 179.318 374.515 179.444 370.05C179.637 363.333 179.826 356.616 180.013 349.898C180.038 348.957 180.072 348.023 180.097 347.082C180.114 346.256 180.139 345.44 180.164 344.615C180.532 331.572 180.901 318.526 181.269 305.478C181.42 300.344 181.565 295.207 181.704 290.068C181.872 284.209 182.039 278.353 182.206 272.5C182.282 269.925 182.349 267.358 182.424 264.782C182.456 263.135 183.128 261.563 184.298 260.398C185.469 259.232 187.047 258.564 188.702 258.532C190.363 258.545 191.952 259.208 193.127 260.377C194.301 261.547 194.967 263.129 194.98 264.782Z" fill="#151515"/>
<path d="M539.379 266.517C532.796 291.336 524.927 315.799 515.806 339.808C513.289 346.431 510.714 353.04 507.961 359.57L508.594 358.077C507.365 361.187 505.796 364.153 503.915 366.921C503.787 367.099 503.657 367.276 503.524 367.451C504.175 366.623 504.298 366.459 503.895 366.96C503.682 367.211 503.472 367.462 503.252 367.706C502.667 368.359 502.038 368.973 501.37 369.543C501.202 369.686 501.031 369.826 500.858 369.963L501.643 369.355C501.552 369.569 500.912 369.853 500.713 369.974C500.068 370.362 499.395 370.701 498.7 370.99L500.2 370.36C499.06 370.817 497.872 371.141 496.658 371.327L498.327 371.104C497.134 371.268 495.925 371.281 494.729 371.142L496.398 371.365C495.42 371.231 494.462 370.975 493.548 370.601L495.048 371.231C494.56 371.02 494.09 370.77 493.642 370.484C493.415 370.337 492.717 369.811 493.63 370.505C494.579 371.227 493.752 370.567 493.557 370.375C493.394 370.215 493.247 370.042 493.088 369.879C492.35 369.125 493.922 371.177 493.42 370.295C493.152 369.853 492.907 369.398 492.685 368.931L493.318 370.424C493.03 369.713 492.825 368.972 492.709 368.214L492.933 369.876C492.813 368.934 492.812 367.98 492.93 367.038L492.706 368.7C492.859 367.648 493.139 366.618 493.539 365.633L492.906 367.126C493.184 366.463 493.514 365.823 493.892 365.21C494.066 364.894 494.27 364.595 494.502 364.317C494.543 364.331 493.44 365.578 494.025 364.948C494.178 364.783 494.321 364.61 494.476 364.447C494.724 364.185 494.99 363.946 495.251 363.698C496.125 362.869 494.027 364.503 495.036 363.847C495.768 363.369 496.537 362.951 497.338 362.598L495.838 363.228C497.178 362.68 498.583 362.305 500.019 362.111L498.35 362.335C500.149 362.129 501.966 362.15 503.758 362.398L502.089 362.175C504.36 362.518 506.579 363.139 508.696 364.025L507.196 363.395C511.707 365.324 515.703 368.187 519.692 370.994C523.544 373.772 527.604 376.253 531.835 378.417C540.936 382.922 550.733 385.873 560.816 387.146C575.277 388.909 589.952 387.029 603.493 381.678C617.034 376.326 629.009 367.674 638.318 356.516C639.454 355.317 640.108 353.744 640.157 352.097C640.145 350.441 639.485 348.856 638.318 347.677C636.015 345.572 631.664 344.977 629.439 347.677C627.331 350.239 625.065 352.668 622.653 354.95C621.528 356.013 620.372 357.044 619.186 358.042C618.509 358.612 617.822 359.17 617.126 359.718C616.797 359.977 615.771 360.666 617.346 359.553C616.985 359.808 616.639 360.087 616.283 360.349C611.011 364.218 605.298 367.453 599.263 369.987L600.763 369.357C594.287 372.062 587.486 373.917 580.529 374.876L582.198 374.653C575.043 375.59 567.794 375.58 560.641 374.621L562.31 374.845C555.158 373.867 548.164 371.97 541.502 369.202L543.002 369.832C536.573 367 530.472 363.482 524.807 359.339C521.858 357.165 518.748 355.216 515.504 353.51C511.725 351.588 507.633 350.35 503.419 349.852C495.518 348.927 487.466 351.991 483.123 358.787C479.125 365.041 479.177 373.991 484.775 379.31C490.54 384.787 499.272 384.741 506.066 381.315C512.61 378.015 516.541 371.159 519.305 364.695C525.525 350.148 531.032 335.264 536.164 320.305C541.24 305.505 545.843 290.556 549.974 275.456C550.486 273.586 550.99 271.714 551.487 269.84C552.325 266.683 550.431 262.906 547.102 262.151C545.497 261.74 543.795 261.966 542.354 262.78C540.913 263.595 539.847 264.934 539.379 266.517Z" fill="#151515"/>
<path d="M602.02 264.782L599.76 344.617L597.512 424.036L596.241 468.943C596.255 470.596 596.921 472.178 598.096 473.347C599.27 474.516 600.859 475.18 602.519 475.194C604.174 475.162 605.753 474.493 606.923 473.328C608.094 472.162 608.765 470.591 608.797 468.943L611.057 389.108L613.305 309.689L614.576 264.782C614.562 263.129 613.896 261.547 612.722 260.378C611.547 259.209 609.959 258.546 608.298 258.531C606.643 258.563 605.065 259.232 603.894 260.397C602.724 261.563 602.052 263.134 602.02 264.782Z" fill="#151515"/>
<path opacity="0.2" d="M384.715 446.653H386.665V358.277H432.142V356.341H386.665V319.051H421.785C421.27 318.399 420.741 317.755 420.196 317.12H386.665V292.49C386.02 292.216 385.37 291.953 384.715 291.704V317.12H346.501V285.563C345.846 285.593 345.201 285.637 344.552 285.692V317.12H314.065V293.575C313.41 293.864 312.765 294.167 312.126 294.486V317.12H286.498V319.051H312.126V356.341H286.498V358.277H312.126V446.653H314.065V358.277C318.069 358.276 322.033 359.061 325.733 360.586C329.432 362.111 332.793 364.347 335.624 367.165C338.455 369.984 340.701 373.331 342.233 377.013C343.764 380.696 344.552 384.644 344.552 388.63V446.653H346.501V358.277H384.715V446.653ZM314.065 356.341V319.051H344.552V356.341H314.065ZM346.501 356.341V319.051H347.266C352.184 319.051 357.054 320.016 361.598 321.89C366.142 323.764 370.27 326.511 373.748 329.974C377.225 333.437 379.984 337.547 381.866 342.072C383.747 346.596 384.716 351.444 384.716 356.341H346.501Z" fill="#151515"/>
<path d="M372.81 420.155C370.356 431.055 364.477 440.893 356.026 448.241C355.407 448.774 354.788 449.291 354.143 449.799C352.578 449.941 351.023 450.085 349.48 450.233C348.2 450.349 346.936 450.474 345.68 450.591L345.454 450.616L345.295 449.249L344.659 443.715C342.191 439.704 340.661 435.191 340.183 430.511C339.705 425.831 340.29 421.104 341.896 416.68C344.106 410.746 348.108 405.504 352.042 400.303C357.475 393.119 362.756 386.018 362.949 377.259C365.622 380.665 367.845 384.399 369.562 388.369C367.942 389.128 366.486 390.195 365.276 391.511C364.933 391.886 364.59 392.411 364.824 392.861C365.025 393.244 365.527 393.336 365.963 393.386C367.009 393.494 368.064 393.602 369.11 393.711C369.947 393.802 370.784 393.886 371.621 393.977C372.634 397.287 373.321 400.686 373.672 404.128C374.236 409.482 373.945 414.891 372.81 420.155Z" fill="#151515"/>
<path d="M400.601 398.311C395.662 401.887 392.774 407.029 390.531 412.696C388.232 413.429 386.163 414.744 384.529 416.513C384.186 416.888 383.843 417.413 384.077 417.863C384.278 418.246 384.78 418.338 385.215 418.388C386.262 418.496 387.317 418.605 388.363 418.713C386.12 425.414 384.06 432.348 380.093 438.007C377.454 441.743 374.014 444.848 370.022 447.099C368.934 447.717 367.81 448.27 366.657 448.758C362.405 449.083 358.234 449.43 354.143 449.799C352.578 449.941 351.023 450.085 349.48 450.233C348.2 450.349 346.936 450.474 345.68 450.591C345.672 450.133 345.672 449.674 345.68 449.216C345.945 437.005 350.457 425.265 358.446 415.996C358.822 415.563 359.207 415.138 359.601 414.713C363.648 410.409 368.408 406.829 373.672 404.128C381.967 399.834 391.264 397.826 400.601 398.311Z" fill="#6200EE"/>
<path d="M350.929 445.957L349.966 448.791L349.48 450.233C348.2 450.349 346.936 450.474 345.68 450.591L345.454 450.616C344.065 450.758 342.683 450.899 341.302 451.041C340.942 450.624 340.582 450.199 340.231 449.766C331.493 439.232 327.299 425.683 328.565 412.079C329.831 398.476 336.454 385.924 346.986 377.168C345.881 382.927 347.17 388.444 349.288 393.919C349.062 394.011 348.844 394.103 348.635 394.203C347.015 394.962 345.559 396.029 344.349 397.344C344.006 397.719 343.663 398.245 343.897 398.695C344.098 399.078 344.6 399.17 345.036 399.22C346.082 399.328 347.137 399.436 348.183 399.545C349.02 399.636 349.857 399.72 350.694 399.811C351.088 399.853 351.481 399.895 351.874 399.936C351.933 400.061 351.983 400.178 352.042 400.303C354.428 405.454 356.997 410.629 358.446 415.996C358.809 417.343 359.094 418.709 359.299 420.088C359.944 424.749 359.526 429.495 358.077 433.973C356.628 438.451 354.185 442.547 350.929 445.957Z" fill="#6200EE"/>
<path d="M435.188 325.08C427.982 311.085 416.817 299.31 403.687 290.657C390.514 282.016 375.398 276.754 359.687 275.339C357.628 275.153 355.563 275.044 353.494 275.012C351.048 274.975 314.263 285.539 301.94 294.165C289.624 302.686 279.493 313.971 272.364 327.108C265.247 340.316 261.746 355.157 262.214 370.139C262.824 385.212 267.043 399.92 274.521 413.04C281.897 426.117 292.369 437.202 305.028 445.331C317.867 453.487 330.764 475.113 345.923 475.877C361.196 476.646 378.614 456.246 392.544 450.052C406.474 443.806 418.517 434.035 427.472 421.712C436.174 409.635 441.804 395.637 443.878 380.918C446.032 365.847 445.028 350.305 439.859 335.9C438.533 332.199 436.972 328.585 435.188 325.08C433.698 322.159 429.332 321.083 426.598 322.838C425.19 323.701 424.17 325.072 423.751 326.664C423.331 328.257 423.544 329.949 424.346 331.39C425.221 333.105 426.034 334.849 426.786 336.621L426.153 335.128C428.999 341.941 430.935 349.097 431.91 356.412L431.685 354.75C432.722 362.686 432.704 370.724 431.63 378.655L431.854 376.993C430.769 384.923 428.643 392.678 425.53 400.057L426.163 398.564C424.562 402.329 422.696 405.977 420.579 409.48C419.505 411.25 418.367 412.978 417.163 414.665C416.634 415.405 416.089 416.133 415.54 416.858C414.823 417.804 416.517 415.622 415.776 416.55C415.65 416.708 415.524 416.867 415.398 417.025C415.018 417.498 414.632 417.967 414.241 418.431C411.631 421.531 408.783 424.425 405.723 427.085C404.96 427.747 404.185 428.395 403.397 429.028C403.005 429.343 402.617 429.672 402.208 429.965C402.224 429.954 403.53 428.965 402.757 429.539C402.514 429.72 402.272 429.903 402.029 430.082C400.405 431.28 398.738 432.417 397.028 433.493C393.091 435.962 388.96 438.112 384.676 439.921L386.176 439.291C378.786 442.388 371.019 444.504 363.075 445.584L364.744 445.361C356.804 446.429 348.757 446.444 340.813 445.403L342.482 445.626C335.262 444.661 328.2 442.76 321.475 439.972L322.975 440.602C319.079 438.965 315.324 437.017 311.744 434.776C309.973 433.665 308.247 432.485 306.568 431.236C306.329 431.058 306.091 430.877 305.852 430.698C305.086 430.122 306.403 431.123 306.413 431.13C305.968 430.812 305.539 430.471 305.129 430.109C304.317 429.452 303.519 428.779 302.733 428.091C299.589 425.334 296.654 422.351 293.95 419.165C293.273 418.369 292.61 417.56 291.962 416.74C291.682 416.384 291.17 415.664 292.301 417.181C292.152 416.981 291.998 416.785 291.847 416.587C291.487 416.111 291.131 415.631 290.78 415.147C289.55 413.453 288.382 411.718 287.274 409.942C284.771 405.92 282.586 401.71 280.74 397.35L281.373 398.843C278.352 391.687 276.286 384.168 275.229 376.477L275.453 378.139C274.498 371.05 274.485 363.866 275.412 356.774L275.188 358.435C276.139 351.567 277.995 344.853 280.708 338.467L280.075 339.961C281.782 335.963 283.796 332.102 286.098 328.413C287.251 326.566 288.472 324.765 289.763 323.008C290.056 322.609 290.352 322.212 290.652 321.818C290.923 321.462 291.669 320.574 290.397 322.142C290.521 321.988 290.641 321.83 290.764 321.675C291.472 320.782 292.198 319.903 292.94 319.037C295.751 315.761 298.796 312.692 302.051 309.852C302.873 309.135 303.709 308.432 304.557 307.745C304.943 307.432 305.331 307.123 305.722 306.817C305.878 306.695 306.036 306.575 306.192 306.452C304.52 307.776 305.727 306.812 306.107 306.529C307.856 305.224 309.651 303.985 311.494 302.811C315.589 300.203 319.898 297.943 324.374 296.054L322.874 296.684C329.37 293.968 358.149 287.559 363.384 288.258L361.715 288.035C369.408 289.104 376.928 291.173 384.081 294.188L382.582 293.557C386.207 295.09 389.73 296.852 393.129 298.832C394.827 299.824 396.492 300.869 398.124 301.968C398.896 302.488 399.66 303.02 400.416 303.564C400.794 303.836 401.17 304.11 401.543 304.388C401.751 304.542 401.956 304.699 402.164 304.853C403.034 305.502 400.965 303.913 401.877 304.631C404.929 307.018 407.828 309.594 410.556 312.343C411.896 313.701 413.19 315.103 414.437 316.547C415.077 317.289 415.704 318.041 416.318 318.804C416.623 319.183 417.661 320.555 416.389 318.874C416.7 319.285 417.014 319.693 417.321 320.107C419.967 323.672 422.316 327.445 424.346 331.39C425.847 334.305 430.194 335.392 432.936 333.632C434.344 332.769 435.365 331.399 435.784 329.806C436.204 328.213 435.99 326.52 435.188 325.08Z" fill="#151515"/>
<path d="M362.035 427.085C361.387 427.115 360.746 426.945 360.197 426.6C359.649 426.254 359.221 425.75 358.971 425.154C358.721 424.558 358.66 423.9 358.798 423.268C358.936 422.637 359.266 422.064 359.742 421.625C359.822 421.31 359.879 421.083 359.959 420.767C359.93 420.698 359.902 420.63 359.873 420.561C356.96 413.646 338.372 432.923 337.569 439.423C337.215 442.295 337.364 445.208 338.01 448.03C331.989 434.954 328.863 420.742 328.843 406.357C328.841 402.747 329.043 399.14 329.446 395.553C329.779 392.612 330.241 389.693 330.833 386.794C334.06 371.064 340.988 356.322 351.05 343.776C356.803 344.096 361.846 343.223 362.333 332.12C362.42 330.146 363.891 328.435 364.215 326.49C363.666 326.562 363.108 326.607 362.558 326.642C362.387 326.651 362.207 326.66 362.036 326.669L361.971 326.672C361.368 326.699 360.769 326.552 360.248 326.248C359.726 325.944 359.304 325.496 359.032 324.959C358.76 324.422 358.649 323.818 358.714 323.22C358.779 322.621 359.016 322.055 359.397 321.587C359.634 321.297 359.871 321.006 360.109 320.716C360.469 320.268 360.838 319.828 361.198 319.38C361.24 319.337 361.279 319.293 361.316 319.246C361.73 318.734 362.144 318.232 362.558 317.721C361.802 316.553 360.785 315.574 359.587 314.861C355.435 312.441 349.708 314.117 346.709 317.856C343.701 321.595 343.134 326.84 344.179 331.511C345.206 335.485 346.905 339.257 349.204 342.664C348.978 342.951 348.744 343.229 348.519 343.516C344.404 348.785 340.817 354.442 337.81 360.408C338.66 353.791 328.257 329.898 324.234 324.837C319.402 318.758 309.492 321.411 308.641 329.117C308.633 329.192 308.625 329.266 308.617 329.341C309.214 329.677 309.799 330.033 310.372 330.41C311.091 330.888 311.648 331.571 311.97 332.37C312.292 333.169 312.365 334.046 312.178 334.887C311.99 335.727 311.553 336.492 310.922 337.081C310.291 337.669 309.496 338.055 308.641 338.186L308.554 338.199C300.555 349.57 326.197 379.165 332.616 372.52C329.595 381.044 327.7 389.923 326.979 398.933C326.57 404.249 326.594 409.589 327.051 414.901L327.024 414.713C325.597 403.143 301.131 385.942 293.987 387.374C289.871 388.2 285.818 388.012 286.442 392.146C286.452 392.211 286.463 392.277 286.473 392.343C287.582 392.793 288.661 393.311 289.706 393.894C290.303 394.23 290.888 394.586 291.461 394.963C292.18 395.441 292.737 396.125 293.059 396.924C293.381 397.723 293.453 398.6 293.266 399.44C293.079 400.281 292.642 401.046 292.011 401.634C291.38 402.223 290.585 402.608 289.73 402.739L289.643 402.753C289.58 402.762 289.526 402.771 289.463 402.78C285.822 415.253 312.823 435.383 329.239 428.977H329.248C330.875 436.016 333.232 442.866 336.281 449.419H361.406C361.496 449.141 361.577 448.855 361.658 448.577C359.332 448.722 356.997 448.584 354.706 448.164C356.57 445.887 358.434 443.592 360.298 441.314C360.339 441.272 360.379 441.227 360.415 441.18C361.361 440.014 362.315 438.858 363.261 437.692L363.261 437.691C363.312 434.118 362.9 430.554 362.036 427.086L362.035 427.085ZM333.264 370.736L333.277 370.718L333.264 370.754V370.736ZM327.699 420.684L327.483 420.2C327.492 419.85 327.492 419.501 327.483 419.142C327.483 419.043 327.465 418.945 327.465 418.846C327.546 419.465 327.618 420.083 327.708 420.702L327.699 420.684Z" fill="#151515"/>
<path d="M79.7311 375.034C84.8165 375.034 88.939 370.93 88.939 365.867C88.939 360.804 84.8165 356.699 79.7311 356.699C74.6457 356.699 70.5232 360.804 70.5232 365.867C70.5232 370.93 74.6457 375.034 79.7311 375.034Z" fill="#151515"/>
<path d="M190.226 475.043C195.311 475.043 199.434 470.939 199.434 465.876C199.434 460.813 195.311 456.708 190.226 456.708C185.14 456.708 181.018 460.813 181.018 465.876C181.018 470.939 185.14 475.043 190.226 475.043Z" fill="#151515"/>
<path d="M609.604 475.043C614.689 475.043 618.812 470.939 618.812 465.876C618.812 460.813 614.689 456.708 609.604 456.708C604.518 456.708 600.396 460.813 600.396 465.876C600.396 470.939 604.518 475.043 609.604 475.043Z" fill="#151515"/>
<path d="M632.205 358.366C637.29 358.366 641.413 354.261 641.413 349.198C641.413 344.135 637.29 340.031 632.205 340.031C627.119 340.031 622.997 344.135 622.997 349.198C622.997 354.261 627.119 358.366 632.205 358.366Z" fill="#151515"/>
<path d="M605.418 273.358C610.504 273.358 614.626 269.254 614.626 264.191C614.626 259.128 610.504 255.023 605.418 255.023C600.333 255.023 596.21 259.128 596.21 264.191C596.21 269.254 600.333 273.358 605.418 273.358Z" fill="#151515"/>
<path d="M221.198 349.198C221.192 351.54 220.283 353.79 218.657 355.483C217.032 357.175 214.815 358.181 212.466 358.292C210.116 358.402 207.814 357.61 206.035 356.077C204.257 354.545 203.138 352.391 202.91 350.06C202.683 347.729 203.364 345.401 204.813 343.556C206.261 341.711 208.367 340.492 210.694 340.15C213.021 339.808 215.391 340.37 217.313 341.719C219.235 343.068 220.563 345.101 221.022 347.398C221.14 347.991 221.199 348.594 221.198 349.198Z" fill="#151515"/>
<path d="M405.356 300.027C410.441 300.027 414.563 295.923 414.563 290.86C414.563 285.797 410.441 281.692 405.356 281.692C400.27 281.692 396.148 285.797 396.148 290.86C396.148 295.923 400.27 300.027 405.356 300.027Z" fill="#151515"/>
<path d="M314.114 290.86C314.108 293.202 313.199 295.452 311.573 297.144C309.948 298.837 307.731 299.842 305.382 299.953C303.032 300.064 300.73 299.271 298.952 297.739C297.173 296.207 296.054 294.052 295.826 291.721C295.599 289.391 296.28 287.062 297.729 285.217C299.178 283.373 301.283 282.153 303.61 281.811C305.937 281.469 308.307 282.031 310.229 283.38C312.152 284.729 313.48 286.763 313.938 289.06C314.056 289.652 314.115 290.255 314.114 290.86Z" fill="#151515"/>
<path d="M195.248 264.191C195.243 266.532 194.333 268.782 192.708 270.475C191.082 272.168 188.866 273.173 186.516 273.284C184.167 273.395 181.865 272.602 180.086 271.07C178.307 269.537 177.188 267.383 176.961 265.052C176.733 262.722 177.414 260.393 178.863 258.548C180.312 256.704 182.418 255.484 184.745 255.142C187.071 254.8 189.441 255.362 191.364 256.711C193.286 258.06 194.614 260.094 195.072 262.391C195.19 262.983 195.249 263.586 195.248 264.191Z" fill="#151515"/>
<path d="M501.62 378.368C506.705 378.368 510.828 374.263 510.828 369.2C510.828 364.137 506.705 360.033 501.62 360.033C496.535 360.033 492.412 364.137 492.412 369.2C492.412 374.263 496.535 378.368 501.62 378.368Z" fill="#151515"/>
<path d="M356.805 295.027C364.202 295.027 370.198 289.057 370.198 281.692C370.198 274.328 364.202 268.358 356.805 268.358C349.408 268.358 343.412 274.328 343.412 281.692C343.412 289.057 349.408 295.027 356.805 295.027Z" fill="#151515"/>
<path d="M719.003 475.744L0.996691 476C0.865803 476 0.736193 475.974 0.615268 475.924C0.494343 475.875 0.384475 475.801 0.291923 475.709C0.199372 475.617 0.125947 475.508 0.0758579 475.387C0.0257693 475.267 0 475.138 0 475.008C0 474.877 0.0257693 474.748 0.0758579 474.628C0.125947 474.508 0.199372 474.398 0.291923 474.306C0.384475 474.214 0.494343 474.141 0.615268 474.091C0.736193 474.041 0.865803 474.015 0.996691 474.015L719.003 473.759C719.267 473.76 719.52 473.865 719.706 474.051C719.892 474.237 719.997 474.489 719.997 474.752C719.997 475.014 719.892 475.266 719.706 475.452C719.52 475.638 719.267 475.743 719.003 475.744Z" fill="#C0C0C0"/>
</g>
<rect x="114" y="548" width="240" height="40" rx="4" fill="#6200EE"/>
<path d="M184.608 574.144C183.371 574.144 182.331 573.915 181.488 573.456C180.645 572.987 180.011 572.32 179.584 571.456C179.168 570.592 178.96 569.563 178.96 568.368C178.96 567.173 179.184 566.144 179.632 565.28C180.08 564.416 180.72 563.749 181.552 563.28C182.395 562.811 183.403 562.576 184.576 562.576C185.397 562.576 186.112 562.693 186.72 562.928C187.328 563.163 187.872 563.504 188.352 563.952L187.792 565.136C187.451 564.837 187.12 564.597 186.8 564.416C186.48 564.235 186.144 564.107 185.792 564.032C185.451 563.947 185.045 563.904 184.576 563.904C183.264 563.904 182.261 564.293 181.568 565.072C180.875 565.851 180.528 566.955 180.528 568.384C180.528 569.835 180.864 570.939 181.536 571.696C182.208 572.453 183.253 572.832 184.672 572.832C185.173 572.832 185.664 572.784 186.144 572.688C186.624 572.592 187.083 572.453 187.52 572.272L187.216 573.024V569.2H184.384V568.048H188.496V573.328C188.016 573.573 187.424 573.771 186.72 573.92C186.016 574.069 185.312 574.144 184.608 574.144ZM194.342 574.144C193.553 574.144 192.87 573.979 192.294 573.648C191.718 573.307 191.27 572.827 190.95 572.208C190.63 571.579 190.47 570.832 190.47 569.968C190.47 569.115 190.63 568.379 190.95 567.76C191.27 567.131 191.718 566.651 192.294 566.32C192.87 565.979 193.553 565.808 194.342 565.808C195.132 565.808 195.814 565.979 196.39 566.32C196.977 566.651 197.425 567.131 197.734 567.76C198.054 568.379 198.214 569.115 198.214 569.968C198.214 570.832 198.054 571.579 197.734 572.208C197.425 572.827 196.977 573.307 196.39 573.648C195.814 573.979 195.132 574.144 194.342 574.144ZM194.342 572.992C195.068 572.992 195.649 572.736 196.086 572.224C196.524 571.712 196.742 570.96 196.742 569.968C196.742 568.976 196.524 568.229 196.086 567.728C195.649 567.227 195.068 566.976 194.342 566.976C193.606 566.976 193.02 567.227 192.582 567.728C192.156 568.229 191.942 568.976 191.942 569.968C191.942 570.96 192.156 571.712 192.582 572.224C193.02 572.736 193.606 572.992 194.342 572.992ZM204.548 574V562.72H206.036V567.648H212.596V562.72H214.1V574H212.596V568.912H206.036V574H204.548ZM220.061 574.144C219.272 574.144 218.589 573.979 218.013 573.648C217.437 573.307 216.989 572.827 216.669 572.208C216.349 571.579 216.189 570.832 216.189 569.968C216.189 569.115 216.349 568.379 216.669 567.76C216.989 567.131 217.437 566.651 218.013 566.32C218.589 565.979 219.272 565.808 220.061 565.808C220.85 565.808 221.533 565.979 222.109 566.32C222.696 566.651 223.144 567.131 223.453 567.76C223.773 568.379 223.933 569.115 223.933 569.968C223.933 570.832 223.773 571.579 223.453 572.208C223.144 572.827 222.696 573.307 222.109 573.648C221.533 573.979 220.85 574.144 220.061 574.144ZM220.061 572.992C220.786 572.992 221.368 572.736 221.805 572.224C222.242 571.712 222.461 570.96 222.461 569.968C222.461 568.976 222.242 568.229 221.805 567.728C221.368 567.227 220.786 566.976 220.061 566.976C219.325 566.976 218.738 567.227 218.301 567.728C217.874 568.229 217.661 568.976 217.661 569.968C217.661 570.96 217.874 571.712 218.301 572.224C218.738 572.736 219.325 572.992 220.061 572.992ZM225.888 574V567.856C225.888 567.547 225.877 567.232 225.856 566.912C225.835 566.592 225.803 566.272 225.76 565.952H227.168L227.328 567.68H227.136C227.349 567.083 227.691 566.624 228.16 566.304C228.629 565.973 229.189 565.808 229.84 565.808C230.501 565.808 231.045 565.968 231.472 566.288C231.899 566.597 232.187 567.088 232.336 567.76H232.096C232.299 567.163 232.656 566.688 233.168 566.336C233.68 565.984 234.277 565.808 234.96 565.808C235.845 565.808 236.512 566.069 236.96 566.592C237.408 567.104 237.632 567.904 237.632 568.992V574H236.176V569.072C236.176 568.336 236.048 567.808 235.792 567.488C235.536 567.157 235.131 566.992 234.576 566.992C233.925 566.992 233.413 567.216 233.04 567.664C232.667 568.101 232.48 568.699 232.48 569.456V574H231.024V569.072C231.024 568.336 230.896 567.808 230.64 567.488C230.395 567.157 229.989 566.992 229.424 566.992C228.773 566.992 228.261 567.216 227.888 567.664C227.525 568.101 227.344 568.699 227.344 569.456V574H225.888ZM243.677 574.144C242.397 574.144 241.384 573.776 240.637 573.04C239.901 572.304 239.533 571.291 239.533 570C239.533 569.147 239.693 568.411 240.013 567.792C240.344 567.163 240.797 566.677 241.373 566.336C241.949 565.984 242.621 565.808 243.389 565.808C244.125 565.808 244.749 565.968 245.261 566.288C245.773 566.597 246.162 567.04 246.429 567.616C246.696 568.192 246.829 568.875 246.829 569.664V570.144H240.669V569.28H245.837L245.565 569.488C245.565 568.656 245.378 568.011 245.005 567.552C244.642 567.093 244.104 566.864 243.389 566.864C242.61 566.864 242.008 567.136 241.581 567.68C241.154 568.213 240.941 568.944 240.941 569.872V570.016C240.941 570.997 241.181 571.739 241.661 572.24C242.152 572.741 242.829 572.992 243.693 572.992C244.173 572.992 244.621 572.923 245.037 572.784C245.453 572.645 245.853 572.416 246.237 572.096L246.717 573.104C246.354 573.435 245.901 573.691 245.357 573.872C244.824 574.053 244.264 574.144 243.677 574.144ZM253.11 574V562.72H257.782C258.988 562.72 259.91 563.008 260.55 563.584C261.19 564.16 261.51 564.955 261.51 565.968C261.51 566.981 261.19 567.781 260.55 568.368C259.91 568.944 258.988 569.232 257.782 569.232H254.598V574H253.11ZM254.598 568.016H257.638C258.428 568.016 259.025 567.84 259.43 567.488C259.836 567.125 260.038 566.619 260.038 565.968C260.038 565.317 259.836 564.816 259.43 564.464C259.025 564.112 258.428 563.936 257.638 563.936H254.598V568.016ZM266.116 574.144C265.412 574.144 264.793 573.979 264.26 573.648C263.727 573.317 263.311 572.837 263.012 572.208C262.713 571.579 262.564 570.832 262.564 569.968C262.564 569.104 262.713 568.363 263.012 567.744C263.311 567.115 263.727 566.635 264.26 566.304C264.793 565.973 265.412 565.808 266.116 565.808C266.831 565.808 267.449 565.989 267.972 566.352C268.505 566.704 268.857 567.189 269.028 567.808H268.836L269.012 565.952H270.42C270.388 566.272 270.356 566.592 270.324 566.912C270.303 567.232 270.292 567.547 270.292 567.856V574H268.836V572.16H269.012C268.841 572.768 268.489 573.253 267.956 573.616C267.433 573.968 266.82 574.144 266.116 574.144ZM266.452 572.992C267.177 572.992 267.759 572.736 268.196 572.224C268.633 571.712 268.852 570.96 268.852 569.968C268.852 568.976 268.633 568.229 268.196 567.728C267.759 567.227 267.177 566.976 266.452 566.976C265.727 566.976 265.14 567.227 264.692 567.728C264.255 568.229 264.036 568.976 264.036 569.968C264.036 570.96 264.255 571.712 264.692 572.224C265.129 572.736 265.716 572.992 266.452 572.992ZM276.316 577.584C275.612 577.584 274.966 577.499 274.38 577.328C273.793 577.157 273.265 576.896 272.796 576.544L273.18 575.472C273.51 575.696 273.836 575.877 274.156 576.016C274.476 576.155 274.806 576.256 275.148 576.32C275.5 576.384 275.862 576.416 276.236 576.416C277.025 576.416 277.617 576.213 278.012 575.808C278.406 575.403 278.604 574.827 278.604 574.08V571.824H278.764C278.593 572.432 278.241 572.917 277.708 573.28C277.185 573.632 276.566 573.808 275.852 573.808C275.126 573.808 274.492 573.648 273.948 573.328C273.414 572.997 272.998 572.533 272.7 571.936C272.401 571.328 272.252 570.619 272.252 569.808C272.252 568.987 272.401 568.277 272.7 567.68C272.998 567.083 273.414 566.624 273.948 566.304C274.492 565.973 275.126 565.808 275.852 565.808C276.566 565.808 277.185 565.984 277.708 566.336C278.23 566.688 278.577 567.173 278.748 567.792L278.604 567.648L278.748 565.952H280.156C280.124 566.272 280.092 566.592 280.06 566.912C280.038 567.232 280.028 567.547 280.028 567.856V573.904C280.028 575.099 279.713 576.011 279.084 576.64C278.465 577.269 277.542 577.584 276.316 577.584ZM276.172 572.656C276.908 572.656 277.494 572.405 277.932 571.904C278.369 571.403 278.588 570.704 278.588 569.808C278.588 568.901 278.369 568.203 277.932 567.712C277.494 567.221 276.908 566.976 276.172 566.976C275.425 566.976 274.828 567.221 274.38 567.712C273.942 568.203 273.724 568.901 273.724 569.808C273.724 570.704 273.942 571.403 274.38 571.904C274.828 572.405 275.425 572.656 276.172 572.656ZM286.13 574.144C284.85 574.144 283.837 573.776 283.09 573.04C282.354 572.304 281.986 571.291 281.986 570C281.986 569.147 282.146 568.411 282.466 567.792C282.797 567.163 283.25 566.677 283.826 566.336C284.402 565.984 285.074 565.808 285.842 565.808C286.578 565.808 287.202 565.968 287.714 566.288C288.226 566.597 288.615 567.04 288.882 567.616C289.149 568.192 289.282 568.875 289.282 569.664V570.144H283.122V569.28H288.29L288.018 569.488C288.018 568.656 287.831 568.011 287.458 567.552C287.095 567.093 286.557 566.864 285.842 566.864C285.063 566.864 284.461 567.136 284.034 567.68C283.607 568.213 283.394 568.944 283.394 569.872V570.016C283.394 570.997 283.634 571.739 284.114 572.24C284.605 572.741 285.282 572.992 286.146 572.992C286.626 572.992 287.074 572.923 287.49 572.784C287.906 572.645 288.306 572.416 288.69 572.096L289.17 573.104C288.807 573.435 288.354 573.691 287.81 573.872C287.277 574.053 286.717 574.144 286.13 574.144Z" fill="#FEFEFE"/>
<rect x="366.5" y="548.5" width="239" height="39" rx="3.5" stroke="#6200EE"/>
<path d="M439.876 574V562.72H444.548C445.753 562.72 446.681 563.003 447.332 563.568C447.993 564.133 448.324 564.923 448.324 565.936C448.324 566.608 448.175 567.179 447.876 567.648C447.577 568.117 447.156 568.475 446.612 568.72C446.079 568.965 445.455 569.088 444.74 569.088L445.012 568.864H445.396C445.833 568.864 446.223 568.976 446.564 569.2C446.905 569.413 447.188 569.765 447.412 570.256L449.012 574H447.364L445.812 570.288C445.631 569.829 445.364 569.531 445.012 569.392C444.671 569.253 444.239 569.184 443.716 569.184H441.364V574H439.876ZM441.364 568.032H444.324C445.145 568.032 445.769 567.856 446.196 567.504C446.633 567.152 446.852 566.64 446.852 565.968C446.852 565.307 446.633 564.805 446.196 564.464C445.769 564.112 445.145 563.936 444.324 563.936H441.364V568.032ZM454.318 574.144C453.038 574.144 452.024 573.776 451.278 573.04C450.542 572.304 450.174 571.291 450.174 570C450.174 569.147 450.334 568.411 450.654 567.792C450.984 567.163 451.438 566.677 452.014 566.336C452.59 565.984 453.262 565.808 454.03 565.808C454.766 565.808 455.39 565.968 455.902 566.288C456.414 566.597 456.803 567.04 457.07 567.616C457.336 568.192 457.47 568.875 457.47 569.664V570.144H451.31V569.28H456.478L456.206 569.488C456.206 568.656 456.019 568.011 455.646 567.552C455.283 567.093 454.744 566.864 454.03 566.864C453.251 566.864 452.648 567.136 452.222 567.68C451.795 568.213 451.582 568.944 451.582 569.872V570.016C451.582 570.997 451.822 571.739 452.302 572.24C452.792 572.741 453.47 572.992 454.334 572.992C454.814 572.992 455.262 572.923 455.678 572.784C456.094 572.645 456.494 572.416 456.878 572.096L457.358 573.104C456.995 573.435 456.542 573.691 455.998 573.872C455.464 574.053 454.904 574.144 454.318 574.144ZM459.372 574V562.224H460.828V574H459.372ZM466.655 574.144C465.866 574.144 465.183 573.979 464.607 573.648C464.031 573.307 463.583 572.827 463.263 572.208C462.943 571.579 462.783 570.832 462.783 569.968C462.783 569.115 462.943 568.379 463.263 567.76C463.583 567.131 464.031 566.651 464.607 566.32C465.183 565.979 465.866 565.808 466.655 565.808C467.444 565.808 468.127 565.979 468.703 566.32C469.29 566.651 469.738 567.131 470.047 567.76C470.367 568.379 470.527 569.115 470.527 569.968C470.527 570.832 470.367 571.579 470.047 572.208C469.738 572.827 469.29 573.307 468.703 573.648C468.127 573.979 467.444 574.144 466.655 574.144ZM466.655 572.992C467.38 572.992 467.962 572.736 468.399 572.224C468.836 571.712 469.055 570.96 469.055 569.968C469.055 568.976 468.836 568.229 468.399 567.728C467.962 567.227 467.38 566.976 466.655 566.976C465.919 566.976 465.332 567.227 464.895 567.728C464.468 568.229 464.255 568.976 464.255 569.968C464.255 570.96 464.468 571.712 464.895 572.224C465.332 572.736 465.919 572.992 466.655 572.992ZM475.554 574.144C474.85 574.144 474.231 573.979 473.698 573.648C473.164 573.317 472.748 572.837 472.45 572.208C472.151 571.579 472.002 570.832 472.002 569.968C472.002 569.104 472.151 568.363 472.45 567.744C472.748 567.115 473.164 566.635 473.698 566.304C474.231 565.973 474.85 565.808 475.554 565.808C476.268 565.808 476.887 565.989 477.41 566.352C477.943 566.704 478.295 567.189 478.466 567.808H478.274L478.45 565.952H479.858C479.826 566.272 479.794 566.592 479.762 566.912C479.74 567.232 479.73 567.547 479.73 567.856V574H478.274V572.16H478.45C478.279 572.768 477.927 573.253 477.394 573.616C476.871 573.968 476.258 574.144 475.554 574.144ZM475.89 572.992C476.615 572.992 477.196 572.736 477.634 572.224C478.071 571.712 478.29 570.96 478.29 569.968C478.29 568.976 478.071 568.229 477.634 567.728C477.196 567.227 476.615 566.976 475.89 566.976C475.164 566.976 474.578 567.227 474.13 567.728C473.692 568.229 473.474 568.976 473.474 569.968C473.474 570.96 473.692 571.712 474.13 572.224C474.567 572.736 475.154 572.992 475.89 572.992ZM485.241 574.144C484.537 574.144 483.918 573.979 483.385 573.648C482.852 573.317 482.436 572.837 482.137 572.208C481.838 571.579 481.689 570.832 481.689 569.968C481.689 569.104 481.838 568.363 482.137 567.744C482.436 567.115 482.852 566.635 483.385 566.304C483.918 565.973 484.537 565.808 485.241 565.808C485.945 565.808 486.558 565.984 487.081 566.336C487.614 566.688 487.972 567.173 488.153 567.792H487.961V562.224H489.417V574H487.977V572.128H488.153C487.982 572.757 487.63 573.253 487.097 573.616C486.574 573.968 485.956 574.144 485.241 574.144ZM485.577 572.992C486.302 572.992 486.884 572.736 487.321 572.224C487.769 571.712 487.993 570.96 487.993 569.968C487.993 568.976 487.769 568.229 487.321 567.728C486.884 567.227 486.302 566.976 485.577 566.976C484.852 566.976 484.265 567.227 483.817 567.728C483.38 568.229 483.161 568.976 483.161 569.968C483.161 570.96 483.38 571.712 483.817 572.224C484.265 572.736 484.852 572.992 485.577 572.992ZM496.235 574V562.72H500.907C502.113 562.72 503.035 563.008 503.675 563.584C504.315 564.16 504.635 564.955 504.635 565.968C504.635 566.981 504.315 567.781 503.675 568.368C503.035 568.944 502.113 569.232 500.907 569.232H497.723V574H496.235ZM497.723 568.016H500.763C501.553 568.016 502.15 567.84 502.555 567.488C502.961 567.125 503.163 566.619 503.163 565.968C503.163 565.317 502.961 564.816 502.555 564.464C502.15 564.112 501.553 563.936 500.763 563.936H497.723V568.016ZM509.241 574.144C508.537 574.144 507.918 573.979 507.385 573.648C506.852 573.317 506.436 572.837 506.137 572.208C505.838 571.579 505.689 570.832 505.689 569.968C505.689 569.104 505.838 568.363 506.137 567.744C506.436 567.115 506.852 566.635 507.385 566.304C507.918 565.973 508.537 565.808 509.241 565.808C509.956 565.808 510.574 565.989 511.097 566.352C511.63 566.704 511.982 567.189 512.153 567.808H511.961L512.137 565.952H513.545C513.513 566.272 513.481 566.592 513.449 566.912C513.428 567.232 513.417 567.547 513.417 567.856V574H511.961V572.16H512.137C511.966 572.768 511.614 573.253 511.081 573.616C510.558 573.968 509.945 574.144 509.241 574.144ZM509.577 572.992C510.302 572.992 510.884 572.736 511.321 572.224C511.758 571.712 511.977 570.96 511.977 569.968C511.977 568.976 511.758 568.229 511.321 567.728C510.884 567.227 510.302 566.976 509.577 566.976C508.852 566.976 508.265 567.227 507.817 567.728C507.38 568.229 507.161 568.976 507.161 569.968C507.161 570.96 507.38 571.712 507.817 572.224C508.254 572.736 508.841 572.992 509.577 572.992ZM519.441 577.584C518.737 577.584 518.091 577.499 517.505 577.328C516.918 577.157 516.39 576.896 515.921 576.544L516.305 575.472C516.635 575.696 516.961 575.877 517.281 576.016C517.601 576.155 517.931 576.256 518.273 576.32C518.625 576.384 518.987 576.416 519.361 576.416C520.15 576.416 520.742 576.213 521.137 575.808C521.531 575.403 521.729 574.827 521.729 574.08V571.824H521.889C521.718 572.432 521.366 572.917 520.833 573.28C520.31 573.632 519.691 573.808 518.977 573.808C518.251 573.808 517.617 573.648 517.073 573.328C516.539 572.997 516.123 572.533 515.825 571.936C515.526 571.328 515.377 570.619 515.377 569.808C515.377 568.987 515.526 568.277 515.825 567.68C516.123 567.083 516.539 566.624 517.073 566.304C517.617 565.973 518.251 565.808 518.977 565.808C519.691 565.808 520.31 565.984 520.833 566.336C521.355 566.688 521.702 567.173 521.873 567.792L521.729 567.648L521.873 565.952H523.281C523.249 566.272 523.217 566.592 523.185 566.912C523.163 567.232 523.153 567.547 523.153 567.856V573.904C523.153 575.099 522.838 576.011 522.209 576.64C521.59 577.269 520.667 577.584 519.441 577.584ZM519.297 572.656C520.033 572.656 520.619 572.405 521.057 571.904C521.494 571.403 521.713 570.704 521.713 569.808C521.713 568.901 521.494 568.203 521.057 567.712C520.619 567.221 520.033 566.976 519.297 566.976C518.55 566.976 517.953 567.221 517.505 567.712C517.067 568.203 516.849 568.901 516.849 569.808C516.849 570.704 517.067 571.403 517.505 571.904C517.953 572.405 518.55 572.656 519.297 572.656ZM529.255 574.144C527.975 574.144 526.962 573.776 526.215 573.04C525.479 572.304 525.111 571.291 525.111 570C525.111 569.147 525.271 568.411 525.591 567.792C525.922 567.163 526.375 566.677 526.951 566.336C527.527 565.984 528.199 565.808 528.967 565.808C529.703 565.808 530.327 565.968 530.839 566.288C531.351 566.597 531.74 567.04 532.007 567.616C532.274 568.192 532.407 568.875 532.407 569.664V570.144H526.247V569.28H531.415L531.143 569.488C531.143 568.656 530.956 568.011 530.583 567.552C530.22 567.093 529.682 566.864 528.967 566.864C528.188 566.864 527.586 567.136 527.159 567.68C526.732 568.213 526.519 568.944 526.519 569.872V570.016C526.519 570.997 526.759 571.739 527.239 572.24C527.73 572.741 528.407 572.992 529.271 572.992C529.751 572.992 530.199 572.923 530.615 572.784C531.031 572.645 531.431 572.416 531.815 572.096L532.295 573.104C531.932 573.435 531.479 573.691 530.935 573.872C530.402 574.053 529.842 574.144 529.255 574.144Z" fill="#6200EE"/>
<defs>
<clipPath id="clip0_92_390">
<rect width="720" height="476" fill="white"/>
</clipPath>
</defs>
</svg>
